<mxfile host="app.diagrams.net" modified="2024-01-23T18:48:05.274Z" agent="Mozilla/5.0 (Windows NT 10.0; Win64; x64) AppleWebKit/537.36 (KHTML, like Gecko) Chrome/120.0.0.0 Safari/537.36 OPR/106.0.0.0" etag="0lW9N3RuiWQPrQ0MTD0q" version="22.1.22" type="github">
  <diagram name="PÃ¡gina-1" id="Ju7T9AEIUhfumeTAfuN7">
    <mxGraphModel dx="2220" dy="776" grid="1" gridSize="10" guides="1" tooltips="1" connect="1" arrows="1" fold="1" page="1" pageScale="1" pageWidth="827" pageHeight="1169" math="0" shadow="0">
      <root>
        <mxCell id="0" />
        <mxCell id="1" parent="0" />
        <mxCell id="B0nc_jZNpu9LgJMOm5Wc-1" value="Package" style="shape=folder;fontStyle=1;tabWidth=110;tabHeight=30;tabPosition=left;html=1;boundedLbl=1;labelInHeader=1;container=1;collapsible=0;whiteSpace=wrap;" vertex="1" parent="1">
          <mxGeometry x="-210" y="40" width="150" height="100" as="geometry" />
        </mxCell>
        <mxCell id="B0nc_jZNpu9LgJMOm5Wc-2" value="base" style="html=1;strokeColor=none;resizeWidth=1;resizeHeight=1;fillColor=none;part=1;connectable=0;allowArrows=0;deletable=0;whiteSpace=wrap;" vertex="1" parent="B0nc_jZNpu9LgJMOm5Wc-1">
          <mxGeometry width="150" height="70" relative="1" as="geometry">
            <mxPoint y="30" as="offset" />
          </mxGeometry>
        </mxCell>
        <mxCell id="B0nc_jZNpu9LgJMOm5Wc-34" style="edgeStyle=orthogonalEdgeStyle;rounded=0;orthogonalLoop=1;jettySize=auto;html=1;exitX=0;exitY=0;exitDx=150;exitDy=47.5;exitPerimeter=0;entryX=0;entryY=0.25;entryDx=0;entryDy=0;" edge="1" parent="1" source="B0nc_jZNpu9LgJMOm5Wc-9" target="B0nc_jZNpu9LgJMOm5Wc-29">
          <mxGeometry relative="1" as="geometry" />
        </mxCell>
        <mxCell id="B0nc_jZNpu9LgJMOm5Wc-9" value="Package" style="shape=folder;fontStyle=1;tabWidth=110;tabHeight=30;tabPosition=left;html=1;boundedLbl=1;labelInHeader=1;container=1;collapsible=0;whiteSpace=wrap;" vertex="1" parent="1">
          <mxGeometry x="-210" y="200" width="150" height="100" as="geometry" />
        </mxCell>
        <mxCell id="B0nc_jZNpu9LgJMOm5Wc-10" value="wrapper" style="html=1;strokeColor=none;resizeWidth=1;resizeHeight=1;fillColor=none;part=1;connectable=0;allowArrows=0;deletable=0;whiteSpace=wrap;" vertex="1" parent="B0nc_jZNpu9LgJMOm5Wc-9">
          <mxGeometry width="150" height="70" relative="1" as="geometry">
            <mxPoint y="30" as="offset" />
          </mxGeometry>
        </mxCell>
        <mxCell id="B0nc_jZNpu9LgJMOm5Wc-11" value="Package" style="shape=folder;fontStyle=1;tabWidth=110;tabHeight=30;tabPosition=left;html=1;boundedLbl=1;labelInHeader=1;container=1;collapsible=0;whiteSpace=wrap;" vertex="1" parent="1">
          <mxGeometry x="70" y="40" width="150" height="100" as="geometry" />
        </mxCell>
        <mxCell id="B0nc_jZNpu9LgJMOm5Wc-12" value="prototype" style="html=1;strokeColor=none;resizeWidth=1;resizeHeight=1;fillColor=none;part=1;connectable=0;allowArrows=0;deletable=0;whiteSpace=wrap;" vertex="1" parent="B0nc_jZNpu9LgJMOm5Wc-11">
          <mxGeometry width="150" height="70" relative="1" as="geometry">
            <mxPoint y="30" as="offset" />
          </mxGeometry>
        </mxCell>
        <mxCell id="B0nc_jZNpu9LgJMOm5Wc-15" value="" style="edgeStyle=none;html=1;startArrow=sysMLPackCont;startSize=12;endArrow=none;rounded=0;exitX=0;exitY=0;exitDx=150;exitDy=65;exitPerimeter=0;entryX=0;entryY=0;entryDx=0;entryDy=65;entryPerimeter=0;" edge="1" parent="1" source="B0nc_jZNpu9LgJMOm5Wc-1" target="B0nc_jZNpu9LgJMOm5Wc-11">
          <mxGeometry width="160" relative="1" as="geometry">
            <mxPoint x="-40" y="139" as="sourcePoint" />
            <mxPoint x="120" y="139" as="targetPoint" />
          </mxGeometry>
        </mxCell>
        <mxCell id="B0nc_jZNpu9LgJMOm5Wc-16" value="" style="edgeStyle=none;html=1;startArrow=sysMLPackCont;startSize=12;endArrow=none;rounded=0;exitX=0;exitY=0;exitDx=0;exitDy=65;exitPerimeter=0;entryX=0;entryY=0;entryDx=0;entryDy=30;entryPerimeter=0;" edge="1" parent="1" source="B0nc_jZNpu9LgJMOm5Wc-1" target="B0nc_jZNpu9LgJMOm5Wc-9">
          <mxGeometry width="160" relative="1" as="geometry">
            <mxPoint x="-80" y="170" as="sourcePoint" />
            <mxPoint x="50" y="170" as="targetPoint" />
            <Array as="points">
              <mxPoint x="-240" y="130" />
              <mxPoint x="-240" y="170" />
              <mxPoint x="-240" y="210" />
            </Array>
          </mxGeometry>
        </mxCell>
        <mxCell id="B0nc_jZNpu9LgJMOm5Wc-29" value="String" style="swimlane;fontStyle=1;align=center;verticalAlign=middle;childLayout=stackLayout;horizontal=1;startSize=29;horizontalStack=0;resizeParent=1;resizeParentMax=0;resizeLast=0;collapsible=0;marginBottom=0;html=1;whiteSpace=wrap;" vertex="1" parent="1">
          <mxGeometry x="-10" y="200" width="140" height="54" as="geometry" />
        </mxCell>
        <mxCell id="B0nc_jZNpu9LgJMOm5Wc-32" value="Object" style="swimlane;fontStyle=1;align=center;verticalAlign=middle;childLayout=stackLayout;horizontal=1;startSize=29;horizontalStack=0;resizeParent=1;resizeParentMax=0;resizeLast=0;collapsible=0;marginBottom=0;html=1;whiteSpace=wrap;" vertex="1" parent="1">
          <mxGeometry x="270" y="40" width="140" height="54" as="geometry" />
        </mxCell>
        <mxCell id="B0nc_jZNpu9LgJMOm5Wc-33" style="edgeStyle=orthogonalEdgeStyle;rounded=0;orthogonalLoop=1;jettySize=auto;html=1;exitX=0;exitY=0;exitDx=150;exitDy=47.5;exitPerimeter=0;entryX=0;entryY=0.25;entryDx=0;entryDy=0;" edge="1" parent="1" source="B0nc_jZNpu9LgJMOm5Wc-11" target="B0nc_jZNpu9LgJMOm5Wc-32">
          <mxGeometry relative="1" as="geometry">
            <mxPoint x="250" y="60" as="targetPoint" />
          </mxGeometry>
        </mxCell>
      </root>
    </mxGraphModel>
  </diagram>
</mxfile>
